Coordinates
version=1
nRows=6
nColumns=36
inDegrees=yes

Units are S.I. units (second, meters, Newtons, ...)
If the header above contains a line with 'inDegrees', this indicates whether rotational values are in degrees (yes) or radians (no).

endheader
time	pelvis_tilt	pelvis_list	pelvis_rotation	pelvis_tx	pelvis_ty	pelvis_tz	hip_flexion_r	hip_adduction_r	hip_rotation_r	knee_angle_r	knee_angle_r_beta	ankle_angle_r	subtalar_angle_r	mtp_angle_r	hip_flexion_l	hip_adduction_l	hip_rotation_l	knee_angle_l	knee_angle_l_beta	ankle_angle_l	subtalar_angle_l	mtp_angle_l	lumbar_extension	lumbar_bending	lumbar_rotation	arm_flex_r	arm_add_r	arm_rot_r	elbow_flex_r	pro_sup_r	arm_flex_l	arm_add_l	arm_rot_l	elbow_flex_l	pro_sup_l
     29.66666670	     -5.99736978	      1.87851334	     -2.50277684	      0.80010822	      1.02873618	      0.85021966	     27.91778172	     -3.59917271	      2.58619486	     43.83441481	      0.76505486	      6.28021234	    -12.99852026	     -7.49999987	      8.13464881	      1.64172718	     -7.37961109	     15.90499246	      0.27759449	     13.36386207	      2.28952732	     -7.49999987	     -3.37832622	      2.57857982	      1.36888752	     -0.52459236	    -10.19680560	     -0.33876303	     18.11667407	     69.68351730	      9.28236892	    -10.67939391	     -9.44175337	     33.58632726	     69.69685416
     29.68333330	     -6.02254847	      1.76909628	     -2.10462996	      0.79914745	      1.02829325	      0.85160829	     28.15172396	     -3.76696378	      1.58852064	     38.41180206	      0.67041242	      6.93496471	    -11.44266810	     -7.49999987	      6.82360627	      1.63998559	     -7.18820032	     15.05719912	      0.26279770	     13.23121220	      2.70768272	     -7.49999987	     -3.62513967	      2.64186626	      0.63705564	     -0.72245687	    -10.18898269	     -1.01545427	     17.99022806	     69.97276085	     10.23242254	    -11.43135378	     -9.46305554	     36.16300850	     70.27081403
     29.70000000	     -6.08838503	      1.76833933	     -1.68759991	      0.79874050	      1.02724964	      0.85279984	     28.27711794	     -4.05345907	      0.52444962	     32.83661326	      0.57310702	      6.80622816	     -9.89176509	     -7.49999987	      5.62326308	      1.68290969	     -6.98653804	     14.24638841	      0.24864638	     13.18620986	      2.98592191	     -7.49999987	     -3.76998941	      2.46659647	      0.08277779	     -1.03614586	    -10.12423431	     -1.77286605	     17.91209548	     70.27789451	     11.27662080	    -12.11467669	     -9.68070735	     38.59595885	     70.75080120
     29.71666670	     -6.06704438	      1.94651862	     -1.28595665	      0.79829373	      1.02521575	      0.85270035	     28.20470590	     -4.52755947	     -0.66363217	     27.27685912	      0.47607100	      6.19340724	     -8.01615574	     -7.49999987	      4.31782142	      1.88766696	     -6.87225772	     13.29892135	      0.23210996	     13.22207810	      3.21726385	     -7.49999987	     -4.01529959	      2.10522721	     -0.63684680	     -1.21781279	     -9.94171483	     -3.28263916	     17.93256422	     70.53746893	     12.05708822	    -12.73183018	    -10.17831394	     41.23621281	     71.03839134
     29.73333330	     -6.03492406	      2.33053698	     -0.89347669	      0.79727239	      1.02363371	      0.85176892	     28.03868173	     -5.18822314	     -1.98250198	     21.86598331	      0.38163340	      5.55321569	     -5.65815249	     -7.49999987	      2.98926067	      2.30335776	     -6.69857104	     12.29509839	      0.21458995	     13.35609400	      3.27451771	     -7.49999987	     -4.17954314	      1.50922606	     -1.25607899	     -1.33050088	     -9.72552611	     -4.35631394	     17.86069056	     70.99947973	     12.94627517	    -13.33823546	    -10.14799976	     43.19680737	     71.29858374
     29.75000000	     -5.93467986	      2.80856414	     -0.50399116	      0.79638101	      1.02205452	      0.85108163	     27.73598342	     -5.87690433	     -3.34520331	     16.73358834	      0.29205621	      5.25382874	     -2.96909005	     -7.49999987	      1.63115040	      2.80068802	     -6.37190502	     11.42657848	      0.19943142	     13.63243643	      3.18336463	     -7.49999987	     -4.36563122	      0.83774952	     -1.86284385	     -1.35977450	     -9.48240236	     -5.32115068	     17.69393305	     71.49507920	     13.76185867	    -13.92525855	     -9.91049094	     44.77447084	     71.51774544
